# Blender v2.79 (sub 0) OBJ File: ''
# www.blender.org
mtllib ashbringer.mtl
o item_objectcomponents_weapon_sword_2h_ashbringer_m2_Geoset_000
v 0.004600 1.605100 -0.158200
v -0.003700 1.557300 -0.206000
v -0.003700 1.605100 -0.158200
v 0.022100 1.491900 -0.092800
v 0.004600 1.378700 -0.158200
v 0.004600 1.426600 -0.206000
v 0.004600 1.361200 -0.092800
v 0.004600 1.378700 -0.027500
v 0.004600 1.557300 0.020300
v 0.004600 1.491900 0.037900
v 0.004600 1.426600 0.020300
v 0.004600 1.622600 -0.092800
v 0.004600 1.605100 -0.027500
v 0.004600 1.557300 -0.206000
v 0.004600 1.491900 -0.223500
v -0.021200 1.491900 -0.092800
v -0.003700 1.426600 -0.206000
v -0.003700 1.378700 -0.158200
v -0.003700 1.491900 -0.223500
v -0.003700 1.622600 -0.092800
v -0.003700 1.605100 -0.027500
v -0.003700 1.557300 0.020300
v -0.003700 1.361200 -0.092800
v -0.003700 1.378700 -0.027500
v -0.003700 1.491900 0.037900
v -0.003700 1.426600 0.020300
v -0.030800 0.668200 0.141100
v 0.030900 0.668200 0.141100
v 0.031800 0.614300 0.183300
v 0.027000 0.891600 0.114000
v -0.026900 0.891600 0.114000
v -0.026500 0.913000 0.277500
v 0.026600 0.913000 0.277500
v 0.000000 0.617800 -0.034000
v 0.029400 0.668500 0.001600
v 0.022400 0.617400 0.001600
v 0.000000 0.668500 -0.074400
v -0.022400 0.617400 0.001600
v -0.029400 0.668500 0.001600
v 0.000000 0.617800 0.037100
v 0.000000 0.668500 0.077500
v 0.030900 0.668200 -0.142500
v -0.030800 0.668200 -0.142500
v -0.031800 0.609600 -0.185100
v 0.031900 0.609600 -0.185100
v 0.029600 0.743700 -0.097100
v -0.029500 0.743700 -0.097100
v -0.029500 0.744000 0.099100
v 0.029600 0.744000 0.099100
v -0.030300 0.694300 0.198100
v 0.030400 0.694300 0.198100
v -0.031700 0.614300 0.183300
v 0.027700 0.851700 0.141700
v -0.027600 0.851700 0.141700
v 0.028800 0.786000 0.138900
v -0.028700 0.786000 0.138900
v 0.027900 0.839300 -0.185100
v 0.028700 0.793600 -0.012700
v 0.028300 0.817100 -0.078700
v 0.027600 0.859200 -0.036600
v 0.029100 0.770600 -0.120100
v 0.028500 0.808000 -0.111100
v 0.027200 0.882500 -0.143300
v 0.027100 0.889400 -0.083500
v -0.027800 0.839300 -0.185100
v -0.027100 0.882500 -0.143300
v -0.027000 0.889400 -0.083500
v -0.027500 0.859200 -0.036600
v -0.028600 0.793600 -0.012700
v -0.029000 0.770600 -0.120100
v -0.028400 0.808000 -0.111100
v -0.028200 0.817100 -0.078700
v 0.019100 0.374100 0.001600
v 0.000000 0.372900 0.045000
v 0.026900 0.168900 0.001600
v 0.000000 0.168900 0.032000
v -0.026900 0.168900 0.001600
v -0.019100 0.374100 0.001600
v 0.000000 0.372900 -0.041900
v 0.000000 0.168900 -0.028900
v 0.026400 0.182700 0.001600
v 0.026400 0.155800 -0.063200
v -0.026500 0.155800 -0.063200
v 0.040900 0.091000 0.001600
v 0.026400 -0.000600 0.001600
v 0.026400 0.026200 -0.063200
v 0.026400 0.091000 -0.090100
v -0.026500 0.091000 -0.090100
v -0.041000 0.091000 0.001600
v -0.026500 0.182700 0.001600
v -0.026500 0.155800 0.066400
v 0.026400 0.155800 0.066400
v 0.026400 0.091000 0.093200
v -0.026500 0.026200 -0.063200
v -0.026500 -0.000600 0.001600
v -0.026500 0.026200 0.066400
v 0.026400 0.026200 0.066400
v -0.026500 0.091000 0.093200
v -0.000100 2.000600 -0.224200
v 0.029300 1.925300 -0.195800
v -0.029400 1.925300 -0.195800
v -0.000100 1.811600 0.184400
v -0.000100 1.762500 0.165000
v -0.018400 1.666400 -0.051300
v -0.023200 1.666400 -0.130600
v 0.023100 1.666400 -0.130600
v 0.018400 1.666800 -0.053100
v 0.013800 1.637200 0.022700
v -0.013900 1.637200 0.022700
v 0.011300 1.535400 0.078100
v 0.020100 0.913200 0.110000
v 0.016800 1.416200 0.065400
v 0.020100 0.884300 0.078200
v 0.020200 1.335800 0.001400
v -0.023200 1.309900 -0.097500
v -0.020200 1.336200 0.002500
v -0.016900 1.416200 0.065400
v -0.011400 1.535400 0.078100
v 0.023100 1.309900 -0.097500
v 0.020100 0.743900 -0.073900
v -0.020200 0.743900 -0.073900
v 0.020100 0.743900 0.078200
v -0.020200 0.884300 0.078200
v -0.020200 0.743900 0.078200
v -0.000100 0.919400 0.152400
v -0.020200 0.913200 0.110000
vt 0.061000 0.628800
vt 0.001700 0.628800
vt 0.001600 0.935600
vt 0.000700 0.936000
vt 0.060600 0.936000
vt 0.060500 0.662900
vt 0.000200 0.662900
vt 0.504700 0.436400
vt 0.536400 0.341500
vt 0.504700 0.341500
vt 0.538600 0.436400
vt 0.504700 0.341500
vt 0.536400 0.341500
vt 0.504700 0.252700
vt 0.538600 0.252200
vt 0.060600 0.584300
vt 0.001500 0.584300
vt 0.001400 0.458300
vt 0.060500 0.458300
vt 0.060100 0.467600
vt 0.000500 0.467600
vt 0.000500 0.809200
vt 0.060100 0.809200
vt 0.001200 0.805300
vt 0.060000 0.805300
vt 0.060100 0.668400
vt 0.001300 0.668400
vt 0.001100 0.865800
vt 0.060300 0.865800
vt 0.059900 0.573200
vt 0.001600 0.573200
vt 0.060000 0.459100
vt 0.001500 0.459100
vt 0.058600 0.935100
vt 0.004500 0.935100
vt 0.004400 0.847800
vt 0.058700 0.847800
vt 0.004200 0.761900
vt 0.058800 0.761900
vt 0.004200 0.672600
vt 0.058900 0.672600
vt 0.130100 0.379400
vt 0.004800 0.403200
vt 0.085300 0.473700
vt 0.214600 0.533000
vt 0.084100 0.928100
vt 0.290300 0.470000
vt 0.492700 0.253300
vt 0.395000 0.461400
vt 0.460500 0.526500
vt 0.000600 0.997100
vt 0.374800 0.997400
vt 0.298400 0.723400
vt 0.337600 0.826800
vt 0.403800 0.755600
vt 0.212900 0.858400
vt 0.255500 0.893400
vt 0.326600 0.878100
vt 0.445300 0.927000
vt 0.456500 0.837600
vt 0.060200 0.738600
vt 0.000600 0.738600
vt 0.000400 0.935600
vt 0.059900 0.935600
vt 0.001000 0.934600
vt 0.001000 0.833600
vt 0.059600 0.833600
vt 0.001000 0.716200
vt 0.059500 0.716200
vt 0.001000 0.579400
vt 0.059600 0.579400
vt 0.001000 0.462200
vt 0.059700 0.462200
vt 0.059400 0.634200
vt 0.002000 0.634200
vt 0.002100 0.594700
vt 0.059300 0.594700
vt 0.002100 0.546400
vt 0.059200 0.546400
vt 0.002100 0.502300
vt 0.059200 0.502300
vt 0.002100 0.461400
vt 0.059200 0.461400
vt 0.395000 0.461400
vt 0.492700 0.253300
vt 0.460500 0.526500
vt 0.290300 0.470000
vt 0.130100 0.379400
vt 0.214600 0.533000
vt 0.085300 0.473700
vt 0.004800 0.403200
vt 0.084100 0.928100
vt 0.374800 0.997400
vt 0.000600 0.997100
vt 0.298400 0.723400
vt 0.403800 0.755600
vt 0.337600 0.826800
vt 0.212900 0.858400
vt 0.255500 0.893400
vt 0.326600 0.878100
vt 0.445300 0.927000
vt 0.456500 0.837600
vt 0.995900 0.341500
vt 0.995800 0.252200
vt 0.501600 0.341500
vt 0.501600 0.252700
vt 0.501600 0.341500
vt 0.501600 0.341500
vt 0.995900 0.341500
vt 0.501600 0.252500
vt 0.501600 0.436400
vt 0.995800 0.436400
vt 0.501600 0.341500
vt 0.501600 0.436400
vt 0.471200 0.601200
vt 0.435600 0.687100
vt 0.435600 0.687100
vt 0.349700 0.601200
vt 0.228100 0.601200
vt 0.263700 0.687100
vt 0.349700 0.722700
vt 0.349700 0.722700
vt 0.349700 0.601200
vt 0.471200 0.601200
vt 0.435600 0.515200
vt 0.435600 0.515200
vt 0.349700 0.479600
vt 0.263700 0.687100
vt 0.228100 0.601200
vt 0.263700 0.515200
vt 0.263700 0.515200
vt 0.349700 0.479600
vt 0.994200 0.247700
vt 0.953400 0.248100
vt 0.953400 0.248100
vt 0.843400 0.004500
vt 0.812900 0.020000
vt 0.773000 0.204100
vt 0.774500 0.247700
vt 0.774500 0.247700
vt 0.773300 0.205700
vt 0.741100 0.134000
vt 0.741100 0.134000
vt 0.660600 0.076900
vt 0.129800 0.051200
vt 0.559800 0.095000
vt 0.098500 0.074900
vt 0.491900 0.167900
vt 0.469900 0.247900
vt 0.492200 0.166800
vt 0.559800 0.095000
vt 0.660600 0.076900
vt 0.469900 0.247900
vt 0.005500 0.247800
vt 0.005500 0.247800
vt 0.005500 0.074900
vt 0.098500 0.074900
vt 0.005500 0.074900
vt 0.132300 0.003400
vt 0.129800 0.051200
vt 0.061900 0.935600
vt 0.653100 0.440300
vt 0.575500 0.499800
vt 0.653100 0.499800
vt 0.746400 0.753600
vt 0.535600 0.875300
vt 0.624700 0.964400
vt 0.503000 0.753600
vt 0.535600 0.632000
vt 0.868000 0.542900
vt 0.746400 0.510300
vt 0.624700 0.542900
vt 0.957100 0.875300
vt 0.989700 0.753600
vt 0.957100 0.632000
vt 0.868000 0.964400
vt 0.746400 0.997000
vt 0.746400 0.753600
vt 0.624700 0.964400
vt 0.535600 0.875300
vt 0.746400 0.997000
vt 0.868000 0.964400
vt 0.957100 0.875300
vt 0.989700 0.753600
vt 0.957100 0.632000
vt 0.868000 0.542900
vt 0.503000 0.753600
vt 0.535600 0.632000
vt 0.746400 0.510300
vt 0.624700 0.542900
vt 0.575500 0.440300
vt 0.501900 0.499800
vt 0.501900 0.440300
vt 0.575500 0.499800
vt 0.575500 0.440300
vt 0.653100 0.499800
vt 0.653100 0.440300
vt 0.736700 0.499800
vt 0.736700 0.440300
vt 0.825200 0.499800
vt 0.825200 0.440300
vt 0.903700 0.499800
vt 0.903700 0.440300
vt 0.993700 0.499800
vt 0.993700 0.440300
vt 0.903700 0.499800
vt 0.903700 0.440300
vt 0.825200 0.499800
vt 0.825200 0.440300
vt 0.736700 0.499800
vt 0.736700 0.440300
vn 0.0000 -0.6165 -0.7874
vn 0.0000 0.9915 -0.1298
vn 0.8400 -0.1151 -0.5302
vn 0.8964 -0.2765 -0.3465
vn -0.8402 -0.1151 -0.5299
vn -0.8964 -0.2765 -0.3465
vn -0.8963 -0.2765 0.3467
vn -0.8401 -0.1151 0.5301
vn 0.8401 -0.1151 0.5301
vn 0.8963 -0.2765 0.3467
vn -0.0000 -0.5875 0.8092
vn -0.0000 -0.5876 0.8091
vn 0.0000 -1.0000 0.0000
vn 0.0000 1.0000 -0.0015
vn 0.0000 1.0000 -0.0012
vn 0.0000 -0.3413 0.9400
vn -0.0000 -0.1816 0.9834
vn 0.0000 -0.5703 -0.8215
vn 0.0000 -0.5703 -0.8214
vn -0.0000 0.0422 -0.9991
vn 0.0000 0.6881 -0.7256
vn 0.0000 0.6878 -0.7259
vn 0.0000 0.6882 -0.7255
vn 0.9998 0.0174 0.0001
vn 0.9999 0.0173 -0.0001
vn 0.9999 0.0173 0.0000
vn 0.9999 0.0173 0.0002
vn 0.9999 0.0173 0.0001
vn 0.9998 0.0173 0.0000
vn 0.9998 0.0174 -0.0001
vn 0.9999 0.0172 -0.0000
vn 0.9999 0.0173 -0.0005
vn 0.9999 0.0171 -0.0002
vn 0.9999 0.0170 -0.0003
vn 0.0000 0.0000 -1.0000
vn 0.0000 0.6954 -0.7187
vn 0.0000 0.9934 -0.1146
vn 0.0000 0.9935 -0.1141
vn 0.0000 0.9934 -0.1143
vn -0.0000 0.8410 0.5411
vn 0.0000 0.8410 0.5410
vn 0.0000 0.8408 0.5414
vn 0.0000 0.3423 0.9396
vn -0.0000 0.6510 0.7591
vn 0.0000 -0.2335 0.9724
vn 0.0000 -0.2340 0.9722
vn 0.0000 -0.2336 0.9723
vn -0.0000 -0.9632 0.2688
vn 0.0000 -0.9632 0.2687
vn 0.0000 -0.9422 -0.3351
vn 0.0000 -0.9421 -0.3354
vn -0.9999 0.0173 0.0001
vn -0.9999 0.0173 0.0002
vn -0.9998 0.0176 0.0001
vn -0.9998 0.0174 0.0001
vn -0.9998 0.0173 0.0000
vn -0.9999 0.0173 -0.0001
vn -0.9999 0.0173 -0.0000
vn -0.9999 0.0172 -0.0000
vn -0.9998 0.0174 -0.0001
vn -0.9999 0.0173 -0.0005
vn -0.9999 0.0171 -0.0002
vn -0.9999 0.0170 -0.0003
vn 0.9142 0.0347 0.4037
vn 0.7488 -0.0420 0.6615
vn -0.7488 -0.0420 0.6615
vn -0.8460 -0.0113 0.5331
vn -0.8461 -0.0113 -0.5329
vn -0.9149 0.0130 -0.4034
vn 0.9142 0.0347 -0.4038
vn 0.9149 0.0130 -0.4034
vn 0.8463 -0.0115 -0.5326
vn 0.8460 -0.0113 0.5331
vn 0.9151 0.0130 0.4031
vn -0.9151 0.0130 0.4031
vn -0.9142 0.0347 0.4037
vn -0.9142 0.0347 -0.4038
vn -0.7487 -0.0420 -0.6616
vn 0.7487 -0.0420 -0.6616
vn -0.0000 0.9239 -0.3826
vn 0.0000 0.9239 -0.3827
vn 0.9856 0.1562 -0.0647
vn 0.9856 -0.1560 -0.0645
vn 0.9856 -0.0647 -0.1562
vn 0.9856 0.0647 -0.1562
vn 0.0000 0.3827 -0.9239
vn -0.0000 0.3826 -0.9239
vn -0.9856 0.0647 -0.1562
vn -0.9856 0.1563 -0.0647
vn -0.9856 0.1563 0.0647
vn 0.0000 0.9239 0.3827
vn 0.0000 0.9239 0.3826
vn 0.0000 0.3827 0.9239
vn -0.0000 0.3828 0.9238
vn -0.9856 -0.0647 -0.1562
vn -0.0000 -0.3827 -0.9239
vn 0.0000 -0.3826 -0.9239
vn -0.0000 -0.9239 -0.3826
vn 0.0000 -0.9239 0.3827
vn 0.0000 -0.9239 -0.3827
vn -0.0000 -0.9238 0.3828
vn 0.9856 -0.1560 0.0645
vn -0.9856 0.0645 0.1560
vn -0.9856 -0.1560 -0.0645
vn -0.9856 -0.1563 0.0648
vn -0.9856 -0.0645 0.1560
vn -0.0000 -0.3827 0.9239
vn 0.0000 -0.3826 0.9239
vn 0.0000 -0.3828 0.9238
vn 0.9856 -0.0645 0.1560
vn 0.9856 0.0645 0.1560
vn 0.9856 0.1562 0.0647
vn 0.0000 0.9238 -0.3828
vn 0.0000 -0.3533 -0.9355
vn -0.8867 0.4197 0.1941
vn 0.8868 0.4194 0.1940
vn 0.9972 -0.0272 0.0690
vn -0.9973 -0.0272 0.0687
vn -0.9965 0.0038 0.0830
vn -0.9981 -0.0087 0.0604
vn -0.0018 -0.9312 -0.3646
vn 0.0000 -0.9313 -0.3642
vn -0.0047 -0.9306 -0.3661
vn 0.9968 0.0187 0.0779
vn 0.9970 0.0285 0.0720
vn 0.9971 0.0265 0.0719
vn 0.9966 0.0193 0.0804
vn 0.9964 0.0183 0.0823
vn 0.9799 0.0240 0.1981
vn 1.0000 0.0061 -0.0055
vn 0.9990 0.0073 0.0440
vn 0.0000 -0.4780 -0.8784
vn 0.0000 -0.4776 -0.8786
vn 0.0012 0.9671 -0.2544
vn 0.0019 0.9671 -0.2543
vn 0.0005 0.9672 -0.2539
vn -0.0164 0.6225 -0.7824
vn 0.0000 0.6181 -0.7861
vn 0.0000 0.1054 -0.9944
vn 0.0000 0.1055 -0.9944
vn 0.0000 -0.0417 -0.9991
vn 1.0000 -0.0000 0.0000
vn 1.0000 -0.0002 0.0002
vn 0.9995 -0.0040 0.0304
vn 0.0000 0.9674 -0.2533
vn -0.9995 -0.0041 0.0307
vn -1.0000 0.0000 0.0000
vn -0.9990 0.0073 0.0441
vn 0.9029 -0.0064 0.4298
vn -0.0000 -0.9893 0.1460
vn 0.0000 -0.7400 0.6726
vn 0.0000 -0.0000 1.0000
vn -0.9029 -0.0064 0.4298
vn 0.9966 0.0037 0.0829
vn -1.0000 0.0061 -0.0055
vn -0.9799 0.0240 0.1982
vn -0.9965 0.0195 0.0808
vn -0.9964 0.0183 0.0823
vn -0.9965 0.0187 0.0819
vn -0.9966 0.0190 0.0799
vn -0.9970 0.0283 0.0718
vn -0.0055 -0.9306 -0.3659
vn 0.0134 -0.9999 0.0069
vn 0.9981 -0.0089 0.0602
vn 0.0000 -0.2442 -0.9697
vn 0.0000 0.7071 -0.7071
vn 0.9905 -0.0970 -0.0972
vn 0.9905 -0.1326 -0.0355
vn 0.9905 -0.1326 0.0355
vn 0.9905 0.0355 0.1329
vn 0.9905 -0.0354 0.1330
vn 0.9905 -0.0970 0.0972
vn 0.9905 0.1329 -0.0357
vn 0.9905 0.1326 0.0355
vn 0.9905 0.0971 0.0971
vn 0.9905 0.0971 -0.0971
vn 0.9905 0.0357 -0.1329
vn 0.9905 -0.0355 -0.1326
vn -0.9905 -0.0970 -0.0972
vn -0.9905 -0.0355 -0.1326
vn -0.9905 0.0357 -0.1329
vn -0.9905 0.0971 -0.0971
vn -0.9905 0.1326 -0.0355
vn -0.9905 0.1326 0.0355
vn -0.9905 0.0971 0.0971
vn -0.9905 -0.1326 -0.0355
vn -0.9905 -0.1326 0.0355
vn -0.9905 0.0355 0.1329
vn -0.9905 -0.0354 0.1330
vn -0.9905 -0.0970 0.0972
vn 0.0000 0.2585 -0.9660
vn 0.0000 -0.2589 -0.9659
vn 0.0000 -0.7070 -0.7072
vn -0.0000 -0.7071 -0.7071
vn 0.0000 -0.9660 -0.2585
vn 0.0000 -0.9659 0.2589
vn -0.0000 -0.7070 0.7072
vn 0.0000 -0.7071 0.7071
vn 0.0000 -0.2588 0.9659
vn -0.0000 0.2588 0.9659
vn 0.0000 0.7071 0.7071
vn 0.0000 0.9659 0.2589
vn 0.0000 0.9660 -0.2585
usemtl item_objectcomponents_weapon_sword_2h_ashbringer_m2_Geoset_000
s 1
f 27/1/1 28/2/1 29/3/1
f 30/4/2 31/5/2 32/6/2
f 32/6/2 33/7/2 30/4/2
f 34/8/3 35/9/3 36/10/3
f 37/11/4 35/9/4 34/8/4
f 38/12/5 39/13/5 34/8/5
f 39/13/6 37/11/6 34/8/6
f 39/13/7 40/14/7 41/15/7
f 39/13/8 38/12/8 40/14/8
f 35/9/9 40/14/9 36/10/9
f 41/15/10 40/14/10 35/9/10
f 42/16/11 43/17/11 44/18/12
f 44/18/12 45/19/11 42/16/11
f 28/20/13 27/21/13 43/22/13
f 43/22/13 42/23/13 28/20/13
f 46/24/14 47/25/15 48/26/14
f 48/26/14 49/27/14 46/24/14
f 33/28/16 32/29/16 50/30/16
f 50/30/16 51/31/16 33/28/16
f 51/31/17 50/30/17 52/32/17
f 52/32/17 29/33/17 51/31/17
f 31/34/18 30/35/18 53/36/18
f 53/36/18 54/37/19 31/34/18
f 54/37/20 53/36/20 55/38/20
f 55/38/20 56/39/20 54/37/20
f 56/39/21 55/38/22 49/40/23
f 49/40/23 48/41/22 56/39/21
f 51/42/24 29/43/25 28/44/25
f 49/45/26 28/44/25 42/46/26
f 28/44/25 49/45/26 51/42/24
f 49/45/26 55/47/24 51/42/24
f 33/48/27 51/42/24 55/47/24
f 55/47/24 53/49/28 33/48/27
f 53/49/28 30/50/29 33/48/27
f 42/46/26 45/51/26 57/52/26
f 58/53/26 59/54/30 60/55/31
f 42/46/26 46/56/28 49/45/26
f 46/56/28 42/46/26 61/57/32
f 57/52/26 61/57/32 42/46/26
f 57/52/26 62/58/33 61/57/32
f 57/52/26 63/59/34 62/58/33
f 63/59/34 59/54/30 62/58/33
f 64/60/29 59/54/30 63/59/34
f 59/54/30 64/60/29 60/55/31
f 45/61/35 44/62/35 65/63/35
f 65/63/35 57/64/35 45/61/35
f 57/64/36 65/65/36 66/66/36
f 66/66/36 63/67/36 57/64/36
f 63/67/37 66/66/38 67/68/39
f 67/68/39 64/69/38 63/67/37
f 64/69/40 67/68/41 68/70/42
f 68/70/42 60/71/41 64/69/40
f 60/71/43 68/70/43 69/72/43
f 69/72/43 58/73/43 60/71/43
f 47/74/44 46/75/44 61/76/44
f 61/76/44 70/77/44 47/74/44
f 70/77/45 61/76/46 62/78/47
f 62/78/47 71/79/46 70/77/45
f 71/79/48 62/78/48 59/80/49
f 59/80/49 72/81/49 71/79/48
f 72/81/50 59/80/51 58/82/50
f 58/82/50 69/83/50 72/81/50
f 54/84/52 32/85/53 31/86/54
f 56/87/55 32/85/53 54/84/52
f 32/85/53 56/87/55 50/88/56
f 48/89/57 50/88/56 56/87/55
f 27/90/57 50/88/56 48/89/57
f 50/88/56 27/90/57 52/91/57
f 48/89/57 43/92/58 27/90/57
f 43/92/58 65/93/58 44/94/58
f 69/95/58 68/96/59 72/97/60
f 43/92/58 48/89/57 47/98/52
f 47/98/52 70/99/61 43/92/58
f 65/93/58 43/92/58 70/99/61
f 65/93/58 70/99/61 71/100/62
f 65/93/58 71/100/62 66/101/63
f 66/101/63 71/100/62 72/97/60
f 67/102/56 66/101/63 72/97/60
f 72/97/60 68/96/59 67/102/56
f 73/103/64 74/104/64 75/105/64
f 74/104/65 76/106/65 75/105/65
f 74/104/66 77/107/66 76/106/66
f 38/108/67 78/109/67 40/110/67
f 78/109/68 38/108/68 34/111/68
f 79/112/69 78/109/69 34/111/69
f 79/112/70 73/103/70 75/105/70
f 79/112/71 34/111/71 73/103/71
f 34/111/72 36/113/72 73/103/72
f 36/113/73 40/110/73 73/103/73
f 40/110/74 74/104/74 73/103/74
f 78/109/75 74/104/75 40/110/75
f 78/109/76 77/107/76 74/104/76
f 77/107/77 78/109/77 79/112/77
f 77/107/78 79/112/78 80/114/78
f 80/114/79 79/112/79 75/105/79
f 81/115/80 82/116/80 83/117/81
f 84/118/82 82/116/82 81/115/82
f 84/118/83 85/119/83 86/120/83
f 84/118/84 86/120/84 87/121/84
f 84/118/85 87/121/85 82/116/85
f 82/116/86 87/121/87 88/122/86
f 82/116/86 88/122/86 83/117/87
f 89/123/88 83/117/88 88/122/88
f 89/123/89 90/124/89 83/117/89
f 89/123/90 91/125/90 90/124/90
f 92/126/91 90/124/92 91/125/92
f 93/127/93 92/126/94 91/125/93
f 89/123/95 88/122/95 94/128/95
f 87/121/96 94/128/96 88/122/97
f 87/121/96 86/120/97 94/128/96
f 86/120/98 95/129/98 94/128/98
f 85/119/99 96/130/99 95/129/99
f 86/120/98 85/119/100 95/129/98
f 85/119/99 97/131/101 96/130/99
f 84/118/102 97/131/102 85/119/102
f 89/123/103 98/132/103 91/125/103
f 93/127/93 91/125/93 98/132/94
f 89/123/104 94/128/104 95/129/104
f 89/123/105 95/129/105 96/130/105
f 89/123/106 96/130/106 98/132/106
f 97/131/107 98/132/107 96/130/108
f 97/131/107 93/127/109 98/132/107
f 84/118/110 93/127/110 97/131/110
f 84/118/111 92/126/111 93/127/111
f 84/118/112 81/115/112 92/126/112
f 92/126/91 81/115/92 90/124/92
f 81/115/80 83/117/81 90/124/113
f 99/133/114 100/134/114 101/135/114
f 102/136/115 99/133/115 101/135/115
f 100/134/116 99/133/116 102/136/116
f 102/136/117 103/137/117 100/134/117
f 101/135/118 103/137/118 102/136/118
f 104/138/119 103/137/119 101/135/119
f 104/138/120 101/135/120 105/139/120
f 104/138/13 105/139/13 106/140/13
f 107/141/121 108/142/122 109/143/123
f 108/142/124 107/141/125 103/137/126
f 110/144/127 108/142/124 103/137/126
f 110/144/128 103/137/128 111/145/128
f 112/146/129 110/144/129 111/145/129
f 112/146/130 111/145/130 113/147/130
f 114/148/131 112/146/131 113/147/131
f 110/144/132 109/143/132 108/142/133
f 115/149/134 116/150/135 114/148/136
f 114/148/137 116/150/137 112/146/137
f 116/150/138 117/151/138 112/146/138
f 110/144/139 112/146/139 117/151/140
f 117/151/140 118/152/139 110/144/139
f 110/144/132 118/152/132 109/143/132
f 119/153/141 120/154/141 121/155/141
f 120/154/142 113/147/142 122/156/142
f 113/147/143 120/154/143 114/148/143
f 114/148/144 120/154/144 119/153/144
f 115/149/134 114/148/136 119/153/145
f 121/155/141 115/149/141 119/153/141
f 116/150/146 115/149/146 121/155/146
f 123/157/147 116/150/147 121/155/147
f 117/151/148 116/150/148 123/157/148
f 124/158/147 123/157/147 121/155/147
f 111/145/149 103/137/149 125/159/149
f 125/159/150 126/160/150 111/145/150
f 113/147/151 111/145/151 126/160/151
f 126/160/151 123/157/151 113/147/151
f 122/156/152 113/147/152 123/157/152
f 123/157/152 124/158/152 122/156/152
f 126/160/153 125/159/153 103/137/153
f 103/137/154 107/141/154 100/134/154
f 123/157/155 126/160/155 117/151/155
f 118/152/156 117/151/156 126/160/156
f 118/152/157 126/160/158 103/137/159
f 109/143/160 118/152/157 103/137/159
f 109/143/161 103/137/161 104/138/161
f 104/138/162 107/141/121 109/143/123
f 107/141/163 104/138/163 106/140/163
f 107/141/164 106/140/164 100/134/164
f 100/134/165 106/140/165 105/139/165
f 105/139/165 101/135/165 100/134/165
f 29/3/1 52/161/1 27/1/1
usemtl item_objectcomponents_weapon_sword_2h_ashbringer_m2_Geoset_000_
f 1/162/166 2/163/166 3/164/166
f 4/165/167 5/166/167 6/167/167
f 4/165/168 7/168/168 5/166/168
f 4/165/169 8/169/169 7/168/169
f 4/165/170 9/170/170 10/171/170
f 4/165/171 10/171/171 11/172/171
f 4/165/172 11/172/172 8/169/172
f 4/165/173 1/173/173 12/174/173
f 4/165/174 12/174/174 13/175/174
f 4/165/175 13/175/175 9/170/175
f 4/165/176 14/176/176 1/173/176
f 4/165/177 15/177/177 14/176/177
f 4/165/178 6/167/178 15/177/178
f 16/178/179 17/179/179 18/180/179
f 16/178/180 19/181/180 17/179/180
f 16/178/181 2/182/181 19/181/181
f 16/178/182 3/183/182 2/182/182
f 16/178/183 20/184/183 3/183/183
f 16/178/184 21/185/184 20/184/184
f 16/178/185 22/186/185 21/185/185
f 16/178/186 18/180/186 23/187/186
f 16/178/187 23/187/187 24/188/187
f 16/178/188 25/189/188 22/186/188
f 16/178/189 26/190/189 25/189/189
f 16/178/190 24/188/190 26/190/190
f 14/191/191 19/192/191 2/163/191
f 1/162/166 14/191/166 2/163/166
f 14/191/191 15/193/191 19/192/191
f 15/193/192 17/194/192 19/192/192
f 15/193/192 6/195/192 17/194/192
f 6/195/193 18/196/193 17/194/193
f 6/195/193 5/197/194 18/196/193
f 5/197/195 23/198/195 18/196/195
f 5/197/195 7/199/195 23/198/195
f 7/199/196 24/200/196 23/198/196
f 7/199/196 8/201/196 24/200/196
f 8/201/197 26/202/197 24/200/197
f 8/201/197 11/203/198 26/202/197
f 11/203/199 25/204/199 26/202/199
f 11/203/199 10/205/199 25/204/199
f 10/205/200 22/206/200 25/204/200
f 10/205/200 9/207/200 22/206/200
f 9/207/201 21/208/201 22/206/201
f 9/207/201 13/209/201 21/208/201
f 13/209/202 20/210/202 21/208/202
f 13/209/202 12/211/202 20/210/202
f 12/211/203 3/164/203 20/210/203
f 12/211/203 1/162/203 3/164/203
